solid CATIA STL
  facet normal  1.352914e-005  1.352914e-005 -1.000000e+000
    outer loop
      vertex -4.171930e+001  4.171930e+001  7.904000e+000
      vertex -4.313351e+001  4.313351e+001  7.904000e+000
      vertex -3.606245e+001  4.737616e+001  7.904153e+000
    endloop
  endfacet
  facet normal  1.352914e-005  1.352914e-005 -1.000000e+000
    outer loop
      vertex -3.606245e+001  4.737616e+001  7.904153e+000
      vertex -4.313351e+001  4.313351e+001  7.904000e+000
      vertex -3.747666e+001  4.879037e+001  7.904153e+000
    endloop
  endfacet
  facet normal  0.000000e+000  0.000000e+000 -1.000000e+000
    outer loop
      vertex -3.606245e+001  4.737616e+001  7.904153e+000
      vertex -3.747666e+001  4.879037e+001  7.904153e+000
      vertex -3.323402e+001  5.020458e+001  7.904153e+000
    endloop
  endfacet
  facet normal  -0.000000e+000  0.000000e+000 -1.000000e+000
    outer loop
      vertex -3.323402e+001  5.020458e+001  7.904153e+000
      vertex -3.747666e+001  4.879037e+001  7.904153e+000
      vertex -3.464823e+001  5.161879e+001  7.904153e+000
    endloop
  endfacet
  facet normal -1.352914e-005 -1.352914e-005 -1.000000e+000
    outer loop
      vertex -3.323402e+001  5.020458e+001  7.904153e+000
      vertex -3.464823e+001  5.161879e+001  7.904153e+000
      vertex -2.757716e+001  5.586143e+001  7.904000e+000
    endloop
  endfacet
  facet normal -1.352914e-005 -1.352914e-005 -1.000000e+000
    outer loop
      vertex -2.757716e+001  5.586143e+001  7.904000e+000
      vertex -3.464823e+001  5.161879e+001  7.904153e+000
      vertex -2.899138e+001  5.727565e+001  7.904000e+000
    endloop
  endfacet
  facet normal  0.000000e+000  0.000000e+000  1.000000e+000
    outer loop
      vertex -2.737258e+001  4.434315e+001  1.000000e+001
      vertex -3.606245e+001  4.737616e+001  1.000000e+001
      vertex -3.020101e+001  4.151472e+001  1.000000e+001
    endloop
  endfacet
  facet normal  0.000000e+000  0.000000e+000  1.000000e+000
    outer loop
      vertex -2.757716e+001  5.586143e+001  1.000000e+001
      vertex -2.899138e+001  5.727565e+001  1.000000e+001
      vertex -3.323402e+001  5.020458e+001  1.000000e+001
    endloop
  endfacet
  facet normal  0.000000e+000  -0.000000e+000  1.000000e+000
    outer loop
      vertex -3.323402e+001  5.020458e+001  1.000000e+001
      vertex -2.899138e+001  5.727565e+001  1.000000e+001
      vertex -3.464823e+001  5.161879e+001  1.000000e+001
    endloop
  endfacet
  facet normal  0.000000e+000  0.000000e+000  1.000000e+000
    outer loop
      vertex -3.323402e+001  5.020458e+001  1.000000e+001
      vertex -3.464823e+001  5.161879e+001  1.000000e+001
      vertex -3.747666e+001  4.879037e+001  1.000000e+001
    endloop
  endfacet
  facet normal  0.000000e+000  0.000000e+000  1.000000e+000
    outer loop
      vertex -2.737258e+001  4.434315e+001  1.000000e+001
      vertex -3.323402e+001  5.020458e+001  1.000000e+001
      vertex -3.606245e+001  4.737616e+001  1.000000e+001
    endloop
  endfacet
  facet normal  0.000000e+000  -0.000000e+000  1.000000e+000
    outer loop
      vertex -3.606245e+001  4.737616e+001  1.000000e+001
      vertex -3.323402e+001  5.020458e+001  1.000000e+001
      vertex -3.747666e+001  4.879037e+001  1.000000e+001
    endloop
  endfacet
  facet normal  0.000000e+000  0.000000e+000  1.000000e+000
    outer loop
      vertex -3.606245e+001  4.737616e+001  1.000000e+001
      vertex -3.747666e+001  4.879037e+001  1.000000e+001
      vertex -4.171930e+001  4.171930e+001  1.000000e+001
    endloop
  endfacet
  facet normal  0.000000e+000  -0.000000e+000  1.000000e+000
    outer loop
      vertex -4.171930e+001  4.171930e+001  1.000000e+001
      vertex -3.747666e+001  4.879037e+001  1.000000e+001
      vertex -4.313351e+001  4.313351e+001  1.000000e+001
    endloop
  endfacet
  facet normal  0.000000e+000  0.000000e+000  1.000000e+000
    outer loop
      vertex -3.747666e+001  4.879037e+001  1.000000e+001
      vertex -3.464823e+001  5.161879e+001  1.000000e+001
      vertex -4.434315e+001  5.565685e+001  1.000000e+001
    endloop
  endfacet
  facet normal  -0.000000e+000  0.000000e+000  1.000000e+000
    outer loop
      vertex -4.434315e+001  5.565685e+001  1.000000e+001
      vertex -3.464823e+001  5.161879e+001  1.000000e+001
      vertex -4.151472e+001  5.848528e+001  1.000000e+001
    endloop
  endfacet
  facet normal -7.071070e-001  7.071065e-001  0.000000e+000
    outer loop
      vertex -2.899138e+001  5.727565e+001  1.000000e+001
      vertex -2.899138e+001  5.727565e+001  7.904000e+000
      vertex -3.464823e+001  5.161879e+001  1.000000e+001
    endloop
  endfacet
  facet normal -7.071070e-001  7.071065e-001  0.000000e+000
    outer loop
      vertex -3.464823e+001  5.161879e+001  1.000000e+001
      vertex -2.899138e+001  5.727565e+001  7.904000e+000
      vertex -3.464823e+001  5.161879e+001  7.904153e+000
    endloop
  endfacet
  facet normal  7.071065e-001 -7.071070e-001  0.000000e+000
    outer loop
      vertex -2.757716e+001  5.586143e+001  1.000000e+001
      vertex -3.323402e+001  5.020458e+001  1.000000e+001
      vertex -2.757716e+001  5.586143e+001  7.904000e+000
    endloop
  endfacet
  facet normal  7.071065e-001 -7.071070e-001  0.000000e+000
    outer loop
      vertex -2.757716e+001  5.586143e+001  7.904000e+000
      vertex -3.323402e+001  5.020458e+001  1.000000e+001
      vertex -3.323402e+001  5.020458e+001  7.904153e+000
    endloop
  endfacet
  facet normal  7.071070e-001 -7.071065e-001  0.000000e+000
    outer loop
      vertex -3.606245e+001  4.737616e+001  1.000000e+001
      vertex -4.171930e+001  4.171930e+001  1.000000e+001
      vertex -3.606245e+001  4.737616e+001  7.904153e+000
    endloop
  endfacet
  facet normal  7.071070e-001 -7.071065e-001  0.000000e+000
    outer loop
      vertex -3.606245e+001  4.737616e+001  7.904153e+000
      vertex -4.171930e+001  4.171930e+001  1.000000e+001
      vertex -4.171930e+001  4.171930e+001  7.904000e+000
    endloop
  endfacet
  facet normal -7.071065e-001  7.071070e-001  0.000000e+000
    outer loop
      vertex -3.747666e+001  4.879037e+001  1.000000e+001
      vertex -3.747666e+001  4.879037e+001  7.904153e+000
      vertex -4.313351e+001  4.313351e+001  1.000000e+001
    endloop
  endfacet
  facet normal -7.071065e-001  7.071070e-001  0.000000e+000
    outer loop
      vertex -4.313351e+001  4.313351e+001  1.000000e+001
      vertex -3.747666e+001  4.879037e+001  7.904153e+000
      vertex -4.313351e+001  4.313351e+001  7.904000e+000
    endloop
  endfacet
  facet normal  7.071068e-001  7.071066e-001  0.000000e+000
    outer loop
      vertex -4.858578e+001  6.555635e+001  7.904153e+000
      vertex -4.858578e+001  6.555635e+001  1.000000e+001
      vertex -3.464823e+001  5.161879e+001  7.904153e+000
    endloop
  endfacet
  facet normal  7.071068e-001  7.071068e-001 -1.287020e-006
    outer loop
      vertex -3.464823e+001  5.161879e+001  7.904153e+000
      vertex -4.858578e+001  6.555635e+001  1.000000e+001
      vertex -4.151472e+001  5.848528e+001  1.000000e+001
    endloop
  endfacet
  facet normal  7.071069e-001  7.071065e-001  0.000000e+000
    outer loop
      vertex -3.464823e+001  5.161879e+001  7.904153e+000
      vertex -4.151472e+001  5.848528e+001  1.000000e+001
      vertex -3.464823e+001  5.161879e+001  1.000000e+001
    endloop
  endfacet
  facet normal  7.071066e-001  7.071069e-001  -0.000000e+000
    outer loop
      vertex -2.737258e+001  4.434315e+001  1.000000e+001
      vertex -2.737258e+001  4.434315e+001  7.904153e+000
      vertex -3.323402e+001  5.020458e+001  1.000000e+001
    endloop
  endfacet
  facet normal  7.071066e-001  7.071069e-001  0.000000e+000
    outer loop
      vertex -3.323402e+001  5.020458e+001  1.000000e+001
      vertex -2.737258e+001  4.434315e+001  7.904153e+000
      vertex -3.323402e+001  5.020458e+001  7.904153e+000
    endloop
  endfacet
  facet normal  0.000000e+000  0.000000e+000 -1.000000e+000
    outer loop
      vertex -3.464823e+001  5.161879e+001  7.904153e+000
      vertex -3.747666e+001  4.879037e+001  7.904153e+000
      vertex -4.858578e+001  6.555635e+001  7.904153e+000
    endloop
  endfacet
  facet normal  0.000000e+000  -0.000000e+000 -1.000000e+000
    outer loop
      vertex -4.858578e+001  6.555635e+001  7.904153e+000
      vertex -3.747666e+001  4.879037e+001  7.904153e+000
      vertex -5.141422e+001  6.272792e+001  7.904153e+000
    endloop
  endfacet
  facet normal  0.000000e+000  0.000000e+000 -1.000000e+000
    outer loop
      vertex -2.737258e+001  4.434315e+001  7.904153e+000
      vertex -3.020101e+001  4.151472e+001  7.904153e+000
      vertex -3.323402e+001  5.020458e+001  7.904153e+000
    endloop
  endfacet
  facet normal  0.000000e+000  -0.000000e+000 -1.000000e+000
    outer loop
      vertex -3.323402e+001  5.020458e+001  7.904153e+000
      vertex -3.020101e+001  4.151472e+001  7.904153e+000
      vertex -3.606245e+001  4.737616e+001  7.904153e+000
    endloop
  endfacet
  facet normal -7.071065e-001 -7.071069e-001  0.000000e+000
    outer loop
      vertex -3.747666e+001  4.879037e+001  1.000000e+001
      vertex -4.434315e+001  5.565685e+001  1.000000e+001
      vertex -3.747666e+001  4.879037e+001  7.904153e+000
    endloop
  endfacet
  facet normal -7.071068e-001 -7.071068e-001 -1.287020e-006
    outer loop
      vertex -3.747666e+001  4.879037e+001  7.904153e+000
      vertex -4.434315e+001  5.565685e+001  1.000000e+001
      vertex -5.141422e+001  6.272792e+001  1.000000e+001
    endloop
  endfacet
  facet normal -7.071066e-001 -7.071068e-001  -0.000000e+000
    outer loop
      vertex -3.747666e+001  4.879037e+001  7.904153e+000
      vertex -5.141422e+001  6.272792e+001  1.000000e+001
      vertex -5.141422e+001  6.272792e+001  7.904153e+000
    endloop
  endfacet
  facet normal -7.071069e-001 -7.071066e-001  0.000000e+000
    outer loop
      vertex -3.020101e+001  4.151472e+001  1.000000e+001
      vertex -3.606245e+001  4.737616e+001  1.000000e+001
      vertex -3.020101e+001  4.151472e+001  7.904153e+000
    endloop
  endfacet
  facet normal -7.071069e-001 -7.071066e-001  0.000000e+000
    outer loop
      vertex -3.020101e+001  4.151472e+001  7.904153e+000
      vertex -3.606245e+001  4.737616e+001  1.000000e+001
      vertex -3.606245e+001  4.737616e+001  7.904153e+000
    endloop
  endfacet
  facet normal -7.071068e-001 -7.071068e-001  0.000000e+000
    outer loop
      vertex -3.585786e+001  6.414214e+001  0.000000e+000
      vertex -2.899138e+001  5.727565e+001  7.904000e+000
      vertex -3.585786e+001  6.414214e+001  1.500000e+001
    endloop
  endfacet
  facet normal -7.071068e-001 -7.071068e-001  0.000000e+000
    outer loop
      vertex -3.585786e+001  6.414214e+001  1.500000e+001
      vertex -2.899138e+001  5.727565e+001  7.904000e+000
      vertex -2.899138e+001  5.727565e+001  1.000000e+001
    endloop
  endfacet
  facet normal -7.071068e-001 -7.071068e-001  0.000000e+000
    outer loop
      vertex -3.585786e+001  6.414214e+001  1.500000e+001
      vertex -2.899138e+001  5.727565e+001  1.000000e+001
      vertex -2.171573e+001  5.000000e+001  1.500000e+001
    endloop
  endfacet
  facet normal -7.071068e-001 -7.071068e-001  0.000000e+000
    outer loop
      vertex -2.171573e+001  5.000000e+001  1.500000e+001
      vertex -2.899138e+001  5.727565e+001  1.000000e+001
      vertex -2.757716e+001  5.586143e+001  1.000000e+001
    endloop
  endfacet
  facet normal -7.071068e-001 -7.071068e-001  0.000000e+000
    outer loop
      vertex -2.171573e+001  5.000000e+001  1.500000e+001
      vertex -2.757716e+001  5.586143e+001  1.000000e+001
      vertex -2.171573e+001  5.000000e+001  0.000000e+000
    endloop
  endfacet
  facet normal -7.071068e-001 -7.071068e-001  0.000000e+000
    outer loop
      vertex -2.171573e+001  5.000000e+001  0.000000e+000
      vertex -2.757716e+001  5.586143e+001  1.000000e+001
      vertex -2.757716e+001  5.586143e+001  7.904000e+000
    endloop
  endfacet
  facet normal -7.071068e-001 -7.071068e-001  0.000000e+000
    outer loop
      vertex -2.171573e+001  5.000000e+001  0.000000e+000
      vertex -2.757716e+001  5.586143e+001  7.904000e+000
      vertex -3.585786e+001  6.414214e+001  0.000000e+000
    endloop
  endfacet
  facet normal -7.071068e-001 -7.071068e-001  0.000000e+000
    outer loop
      vertex -3.585786e+001  6.414214e+001  0.000000e+000
      vertex -2.757716e+001  5.586143e+001  7.904000e+000
      vertex -2.899138e+001  5.727565e+001  7.904000e+000
    endloop
  endfacet
  facet normal  7.071068e-001  7.071068e-001  0.000000e+000
    outer loop
      vertex -5.000000e+001  5.000000e+001  1.500000e+001
      vertex -4.313351e+001  4.313351e+001  1.000000e+001
      vertex -5.000000e+001  5.000000e+001  0.000000e+000
    endloop
  endfacet
  facet normal  7.071068e-001  7.071068e-001  0.000000e+000
    outer loop
      vertex -5.000000e+001  5.000000e+001  0.000000e+000
      vertex -4.313351e+001  4.313351e+001  1.000000e+001
      vertex -4.313351e+001  4.313351e+001  7.904000e+000
    endloop
  endfacet
  facet normal  7.071068e-001  7.071068e-001  0.000000e+000
    outer loop
      vertex -5.000000e+001  5.000000e+001  0.000000e+000
      vertex -4.313351e+001  4.313351e+001  7.904000e+000
      vertex -3.585786e+001  3.585786e+001  0.000000e+000
    endloop
  endfacet
  facet normal  7.071068e-001  7.071068e-001  0.000000e+000
    outer loop
      vertex -3.585786e+001  3.585786e+001  0.000000e+000
      vertex -4.313351e+001  4.313351e+001  7.904000e+000
      vertex -4.171930e+001  4.171930e+001  7.904000e+000
    endloop
  endfacet
  facet normal  7.071068e-001  7.071068e-001  0.000000e+000
    outer loop
      vertex -3.585786e+001  3.585786e+001  0.000000e+000
      vertex -4.171930e+001  4.171930e+001  7.904000e+000
      vertex -3.585786e+001  3.585786e+001  1.500000e+001
    endloop
  endfacet
  facet normal  7.071068e-001  7.071068e-001  0.000000e+000
    outer loop
      vertex -3.585786e+001  3.585786e+001  1.500000e+001
      vertex -4.171930e+001  4.171930e+001  7.904000e+000
      vertex -4.171930e+001  4.171930e+001  1.000000e+001
    endloop
  endfacet
  facet normal  7.071068e-001  7.071068e-001  0.000000e+000
    outer loop
      vertex -3.585786e+001  3.585786e+001  1.500000e+001
      vertex -4.171930e+001  4.171930e+001  1.000000e+001
      vertex -5.000000e+001  5.000000e+001  1.500000e+001
    endloop
  endfacet
  facet normal  7.071068e-001  7.071068e-001  0.000000e+000
    outer loop
      vertex -5.000000e+001  5.000000e+001  1.500000e+001
      vertex -4.171930e+001  4.171930e+001  1.000000e+001
      vertex -4.313351e+001  4.313351e+001  1.000000e+001
    endloop
  endfacet
  facet normal -7.071067e-001  7.071069e-001  0.000000e+000
    outer loop
      vertex -2.171573e+001  5.000000e+001  0.000000e+000
      vertex -2.737258e+001  4.434315e+001  7.904153e+000
      vertex -2.171573e+001  5.000000e+001  1.500000e+001
    endloop
  endfacet
  facet normal -7.071066e-001  7.071069e-001  0.000000e+000
    outer loop
      vertex -2.171573e+001  5.000000e+001  1.500000e+001
      vertex -2.737258e+001  4.434315e+001  7.904153e+000
      vertex -2.737258e+001  4.434315e+001  1.000000e+001
    endloop
  endfacet
  facet normal -7.071068e-001  7.071068e-001  2.697398e-007
    outer loop
      vertex -2.171573e+001  5.000000e+001  1.500000e+001
      vertex -2.737258e+001  4.434315e+001  1.000000e+001
      vertex -3.585786e+001  3.585786e+001  1.500000e+001
    endloop
  endfacet
  facet normal -7.071073e-001  7.071064e-001 -1.348699e-006
    outer loop
      vertex -3.585786e+001  3.585786e+001  1.500000e+001
      vertex -2.737258e+001  4.434315e+001  1.000000e+001
      vertex -3.020101e+001  4.151472e+001  1.000000e+001
    endloop
  endfacet
  facet normal -7.071067e-001  7.071069e-001  0.000000e+000
    outer loop
      vertex -3.585786e+001  3.585786e+001  1.500000e+001
      vertex -3.020101e+001  4.151472e+001  1.000000e+001
      vertex -3.585786e+001  3.585786e+001  0.000000e+000
    endloop
  endfacet
  facet normal -7.071066e-001  7.071069e-001  0.000000e+000
    outer loop
      vertex -3.585786e+001  3.585786e+001  0.000000e+000
      vertex -3.020101e+001  4.151472e+001  1.000000e+001
      vertex -3.020101e+001  4.151472e+001  7.904153e+000
    endloop
  endfacet
  facet normal -7.071068e-001  7.071068e-001  1.706317e-007
    outer loop
      vertex -3.585786e+001  3.585786e+001  0.000000e+000
      vertex -3.020101e+001  4.151472e+001  7.904153e+000
      vertex -2.171573e+001  5.000000e+001  0.000000e+000
    endloop
  endfacet
  facet normal -7.071073e-001  7.071064e-001 -8.531583e-007
    outer loop
      vertex -2.171573e+001  5.000000e+001  0.000000e+000
      vertex -3.020101e+001  4.151472e+001  7.904153e+000
      vertex -2.737258e+001  4.434315e+001  7.904153e+000
    endloop
  endfacet
  facet normal  -0.000000e+000  0.000000e+000 -1.000000e+000
    outer loop
      vertex -4.858578e+001  6.555635e+001  1.000000e+001
      vertex -3.770485e+001  6.229515e+001  1.000000e+001
      vertex -4.151472e+001  5.848528e+001  1.000000e+001
    endloop
  endfacet
  facet normal  0.000000e+000  0.000000e+000 -1.000000e+000
    outer loop
      vertex -3.770485e+001  6.229515e+001  1.000000e+001
      vertex -4.858578e+001  6.555635e+001  1.000000e+001
      vertex -4.770485e+001  7.229515e+001  1.000000e+001
    endloop
  endfacet
  facet normal  0.000000e+000  0.000000e+000 -1.000000e+000
    outer loop
      vertex -4.770485e+001  7.229515e+001  1.000000e+001
      vertex -4.858578e+001  6.555635e+001  1.000000e+001
      vertex -5.141422e+001  6.272792e+001  1.000000e+001
    endloop
  endfacet
  facet normal  -0.000000e+000  0.000000e+000 -9.999999e-001
    outer loop
      vertex -4.770485e+001  7.229515e+001  1.000000e+001
      vertex -5.141422e+001  6.272792e+001  1.000000e+001
      vertex -5.810103e+001  6.189897e+001  1.000000e+001
    endloop
  endfacet
  facet normal  0.000000e+000  0.000000e+000 -1.000000e+000
    outer loop
      vertex -5.810103e+001  6.189897e+001  1.000000e+001
      vertex -5.141422e+001  6.272792e+001  1.000000e+001
      vertex -4.434315e+001  5.565685e+001  1.000000e+001
    endloop
  endfacet
  facet normal  -0.000000e+000  0.000000e+000 -1.000000e+000
    outer loop
      vertex -5.810103e+001  6.189897e+001  1.000000e+001
      vertex -4.434315e+001  5.565685e+001  1.000000e+001
      vertex -4.810103e+001  5.189897e+001  1.000000e+001
    endloop
  endfacet
  facet normal -7.071068e-001  7.071068e-001  0.000000e+000
    outer loop
      vertex -4.858578e+001  6.555635e+001  7.904153e+000
      vertex -5.141422e+001  6.272792e+001  7.904153e+000
      vertex -4.858578e+001  6.555635e+001  1.000000e+001
    endloop
  endfacet
  facet normal -7.071068e-001  7.071068e-001  0.000000e+000
    outer loop
      vertex -4.858578e+001  6.555635e+001  1.000000e+001
      vertex -5.141422e+001  6.272792e+001  7.904153e+000
      vertex -5.141422e+001  6.272792e+001  1.000000e+001
    endloop
  endfacet
  facet normal  7.071068e-001 -7.071068e-001  0.000000e+000
    outer loop
      vertex -5.000000e+001  5.000000e+001  1.500000e+001
      vertex -5.000000e+001  5.000000e+001  0.000000e+000
      vertex -4.810103e+001  5.189897e+001  0.000000e+000
    endloop
  endfacet
  facet normal  7.071068e-001 -7.071068e-001  0.000000e+000
    outer loop
      vertex -5.000000e+001  5.000000e+001  1.500000e+001
      vertex -4.810103e+001  5.189897e+001  0.000000e+000
      vertex -4.810103e+001  5.189897e+001  1.000000e+001
    endloop
  endfacet
  facet normal  7.071068e-001 -7.071068e-001  0.000000e+000
    outer loop
      vertex -5.000000e+001  5.000000e+001  1.500000e+001
      vertex -4.810103e+001  5.189897e+001  1.000000e+001
      vertex -4.434315e+001  5.565685e+001  1.000000e+001
    endloop
  endfacet
  facet normal  7.071068e-001 -7.071068e-001  0.000000e+000
    outer loop
      vertex -5.000000e+001  5.000000e+001  1.500000e+001
      vertex -4.434315e+001  5.565685e+001  1.000000e+001
      vertex -4.151472e+001  5.848528e+001  1.000000e+001
    endloop
  endfacet
  facet normal  7.071068e-001 -7.071068e-001  0.000000e+000
    outer loop
      vertex -5.000000e+001  5.000000e+001  1.500000e+001
      vertex -4.151472e+001  5.848528e+001  1.000000e+001
      vertex -3.770485e+001  6.229515e+001  1.000000e+001
    endloop
  endfacet
  facet normal  7.071068e-001 -7.071068e-001  0.000000e+000
    outer loop
      vertex -5.000000e+001  5.000000e+001  1.500000e+001
      vertex -3.770485e+001  6.229515e+001  1.000000e+001
      vertex -3.585786e+001  6.414214e+001  1.500000e+001
    endloop
  endfacet
  facet normal  7.071068e-001 -7.071068e-001  0.000000e+000
    outer loop
      vertex -3.770485e+001  6.229515e+001  1.000000e+001
      vertex -3.770485e+001  6.229515e+001  0.000000e+000
      vertex -3.585786e+001  6.414214e+001  1.500000e+001
    endloop
  endfacet
  facet normal  7.071068e-001 -7.071068e-001  0.000000e+000
    outer loop
      vertex -3.585786e+001  6.414214e+001  1.500000e+001
      vertex -3.770485e+001  6.229515e+001  0.000000e+000
      vertex -3.585786e+001  6.414214e+001  0.000000e+000
    endloop
  endfacet
  facet normal -7.071068e-001  7.071068e-001  0.000000e+000
    outer loop
      vertex -7.000000e+001  5.000000e+001  1.000000e+001
      vertex -7.000000e+001  5.000000e+001  1.500000e+001
      vertex -5.810103e+001  6.189897e+001  1.000000e+001
    endloop
  endfacet
  facet normal -7.071068e-001  7.071068e-001  0.000000e+000
    outer loop
      vertex -7.000000e+001  5.000000e+001  1.000000e+001
      vertex -5.810103e+001  6.189897e+001  1.000000e+001
      vertex -5.810103e+001  6.189897e+001  0.000000e+000
    endloop
  endfacet
  facet normal -7.071068e-001  7.071068e-001  0.000000e+000
    outer loop
      vertex -7.000000e+001  5.000000e+001  1.000000e+001
      vertex -5.810103e+001  6.189897e+001  0.000000e+000
      vertex -8.000000e+001  4.000000e+001  5.000000e+000
    endloop
  endfacet
  facet normal -7.071068e-001  7.071068e-001  0.000000e+000
    outer loop
      vertex -7.000000e+001  5.000000e+001  1.000000e+001
      vertex -8.000000e+001  4.000000e+001  5.000000e+000
      vertex -8.000000e+001  4.000000e+001  1.000000e+001
    endloop
  endfacet
  facet normal -7.071068e-001  7.071068e-001  0.000000e+000
    outer loop
      vertex -7.000000e+001  5.000000e+001  1.500000e+001
      vertex  1.421085e-014  1.200000e+002  1.500000e+001
      vertex -5.810103e+001  6.189897e+001  1.000000e+001
    endloop
  endfacet
  facet normal -7.071066e-001  7.071069e-001 -3.014983e-006
    outer loop
      vertex -5.810103e+001  6.189897e+001  1.000000e+001
      vertex  1.421085e-014  1.200000e+002  1.500000e+001
      vertex -4.770485e+001  7.229515e+001  1.000000e+001
    endloop
  endfacet
  facet normal -7.071068e-001  7.071068e-001  1.004859e-015
    outer loop
      vertex  1.421085e-014  1.200000e+002  1.500000e+001
      vertex -7.105427e-015  1.200000e+002  0.000000e+000
      vertex -4.770485e+001  7.229515e+001  1.000000e+001
    endloop
  endfacet
  facet normal -7.071068e-001  7.071068e-001  0.000000e+000
    outer loop
      vertex -4.770485e+001  7.229515e+001  1.000000e+001
      vertex -7.105427e-015  1.200000e+002  0.000000e+000
      vertex -4.770485e+001  7.229515e+001  0.000000e+000
    endloop
  endfacet
  facet normal -7.071068e-001  7.071068e-001  0.000000e+000
    outer loop
      vertex -8.000000e+001  4.000000e+001  5.000000e+000
      vertex -5.810103e+001  6.189897e+001  0.000000e+000
      vertex -1.200000e+002  0.000000e+000  5.000000e+000
    endloop
  endfacet
  facet normal -7.071068e-001  7.071068e-001  0.000000e+000
    outer loop
      vertex -1.200000e+002  0.000000e+000  5.000000e+000
      vertex -5.810103e+001  6.189897e+001  0.000000e+000
      vertex -1.200000e+002  0.000000e+000  0.000000e+000
    endloop
  endfacet
  facet normal  0.000000e+000  0.000000e+000 -1.000000e+000
    outer loop
      vertex -3.770485e+001  6.229515e+001  0.000000e+000
      vertex -4.770485e+001  7.229515e+001  0.000000e+000
      vertex -3.585786e+001  6.414214e+001  0.000000e+000
    endloop
  endfacet
  facet normal  0.000000e+000  0.000000e+000 -1.000000e+000
    outer loop
      vertex  1.200000e+002 -2.131628e-014  0.000000e+000
      vertex  0.000000e+000 -1.200000e+002  0.000000e+000
      vertex -1.200000e+002  0.000000e+000  0.000000e+000
    endloop
  endfacet
  facet normal  0.000000e+000  0.000000e+000 -1.000000e+000
    outer loop
      vertex  1.200000e+002 -2.131628e-014  0.000000e+000
      vertex -1.200000e+002  0.000000e+000  0.000000e+000
      vertex -3.585786e+001  3.585786e+001  0.000000e+000
    endloop
  endfacet
  facet normal  0.000000e+000  0.000000e+000 -1.000000e+000
    outer loop
      vertex  1.200000e+002 -2.131628e-014  0.000000e+000
      vertex -3.585786e+001  3.585786e+001  0.000000e+000
      vertex -2.171573e+001  5.000000e+001  0.000000e+000
    endloop
  endfacet
  facet normal  0.000000e+000  0.000000e+000 -1.000000e+000
    outer loop
      vertex  1.200000e+002 -2.131628e-014  0.000000e+000
      vertex -2.171573e+001  5.000000e+001  0.000000e+000
      vertex -3.585786e+001  6.414214e+001  0.000000e+000
    endloop
  endfacet
  facet normal  0.000000e+000  0.000000e+000 -1.000000e+000
    outer loop
      vertex  1.200000e+002 -2.131628e-014  0.000000e+000
      vertex -3.585786e+001  6.414214e+001  0.000000e+000
      vertex -4.770485e+001  7.229515e+001  0.000000e+000
    endloop
  endfacet
  facet normal  0.000000e+000  0.000000e+000 -9.999999e-001
    outer loop
      vertex  1.200000e+002 -2.131628e-014  0.000000e+000
      vertex -4.770485e+001  7.229515e+001  0.000000e+000
      vertex -7.105427e-015  1.200000e+002  0.000000e+000
    endloop
  endfacet
  facet normal  0.000000e+000  -0.000000e+000 -1.000000e+000
    outer loop
      vertex -1.200000e+002  0.000000e+000  0.000000e+000
      vertex -5.810103e+001  6.189897e+001  0.000000e+000
      vertex -4.810103e+001  5.189897e+001  0.000000e+000
    endloop
  endfacet
  facet normal  0.000000e+000  0.000000e+000 -1.000000e+000
    outer loop
      vertex -1.200000e+002  0.000000e+000  0.000000e+000
      vertex -4.810103e+001  5.189897e+001  0.000000e+000
      vertex -5.000000e+001  5.000000e+001  0.000000e+000
    endloop
  endfacet
  facet normal  0.000000e+000  -0.000000e+000 -1.000000e+000
    outer loop
      vertex -1.200000e+002  0.000000e+000  0.000000e+000
      vertex -5.000000e+001  5.000000e+001  0.000000e+000
      vertex -3.585786e+001  3.585786e+001  0.000000e+000
    endloop
  endfacet
  facet normal -7.071066e-001 -7.071069e-001  -0.000000e+000
    outer loop
      vertex -3.770485e+001  6.229515e+001  0.000000e+000
      vertex -3.770485e+001  6.229515e+001  1.000000e+001
      vertex -4.770485e+001  7.229515e+001  0.000000e+000
    endloop
  endfacet
  facet normal -7.071066e-001 -7.071069e-001  0.000000e+000
    outer loop
      vertex -4.770485e+001  7.229515e+001  0.000000e+000
      vertex -3.770485e+001  6.229515e+001  1.000000e+001
      vertex -4.770485e+001  7.229515e+001  1.000000e+001
    endloop
  endfacet
  facet normal  7.071068e-001  7.071068e-001  -0.000000e+000
    outer loop
      vertex -4.810103e+001  5.189897e+001  1.000000e+001
      vertex -4.810103e+001  5.189897e+001  0.000000e+000
      vertex -5.810103e+001  6.189897e+001  1.000000e+001
    endloop
  endfacet
  facet normal  7.071068e-001  7.071068e-001  0.000000e+000
    outer loop
      vertex -5.810103e+001  6.189897e+001  1.000000e+001
      vertex -4.810103e+001  5.189897e+001  0.000000e+000
      vertex -5.810103e+001  6.189897e+001  0.000000e+000
    endloop
  endfacet
  facet normal  0.000000e+000  -0.000000e+000  1.000000e+000
    outer loop
      vertex -6.000000e+001  2.000000e+001  1.500000e+001
      vertex -5.000000e+001  1.000000e+001  1.500000e+001
      vertex -4.000000e+001  2.000000e+001  1.500000e+001
    endloop
  endfacet
  facet normal  0.000000e+000  -0.000000e+000  1.000000e+000
    outer loop
      vertex  2.000000e+001  4.000000e+001  1.500000e+001
      vertex  4.000000e+001  4.000000e+001  1.500000e+001
      vertex  7.000000e+001  5.000000e+001  1.500000e+001
    endloop
  endfacet
  facet normal  0.000000e+000  -0.000000e+000  1.000000e+000
    outer loop
      vertex  2.000000e+001  4.000000e+001  1.500000e+001
      vertex  3.000000e+001  3.000000e+001  1.500000e+001
      vertex  4.000000e+001  4.000000e+001  1.500000e+001
    endloop
  endfacet
  facet normal  0.000000e+000  -0.000000e+000  1.000000e+000
    outer loop
      vertex  4.000000e+001  4.000000e+001  1.500000e+001
      vertex  6.000000e+001  4.000000e+001  1.500000e+001
      vertex  7.000000e+001  5.000000e+001  1.500000e+001
    endloop
  endfacet
  facet normal  0.000000e+000  -0.000000e+000  1.000000e+000
    outer loop
      vertex  4.000000e+001  4.000000e+001  1.500000e+001
      vertex  5.000000e+001  3.000000e+001  1.500000e+001
      vertex  6.000000e+001  4.000000e+001  1.500000e+001
    endloop
  endfacet
  facet normal  0.000000e+000  -0.000000e+000  1.000000e+000
    outer loop
      vertex -3.585786e+001  3.585786e+001  1.500000e+001
      vertex  1.000000e+001  3.000000e+001  1.500000e+001
      vertex  2.000000e+001  4.000000e+001  1.500000e+001
    endloop
  endfacet
  facet normal  -0.000000e+000  -0.000000e+000  1.000000e+000
    outer loop
      vertex -7.000000e+001  5.000000e+001  1.500000e+001
      vertex -6.000000e+001  4.000000e+001  1.500000e+001
      vertex -3.585786e+001  3.585786e+001  1.500000e+001
    endloop
  endfacet
  facet normal  0.000000e+000  0.000000e+000  1.000000e+000
    outer loop
      vertex -7.000000e+001  5.000000e+001  1.500000e+001
      vertex -3.585786e+001  3.585786e+001  1.500000e+001
      vertex -5.000000e+001  5.000000e+001  1.500000e+001
    endloop
  endfacet
  facet normal  0.000000e+000  -0.000000e+000  1.000000e+000
    outer loop
      vertex -7.000000e+001  5.000000e+001  1.500000e+001
      vertex -5.000000e+001  5.000000e+001  1.500000e+001
      vertex -3.585786e+001  6.414214e+001  1.500000e+001
    endloop
  endfacet
  facet normal  0.000000e+000  -0.000000e+000  1.000000e+000
    outer loop
      vertex -7.000000e+001  5.000000e+001  1.500000e+001
      vertex -3.585786e+001  6.414214e+001  1.500000e+001
      vertex  1.421085e-014  1.200000e+002  1.500000e+001
    endloop
  endfacet
  facet normal  0.000000e+000  0.000000e+000  1.000000e+000
    outer loop
      vertex  7.000000e+001  5.000000e+001  1.500000e+001
      vertex  1.421085e-014  1.200000e+002  1.500000e+001
      vertex -3.585786e+001  6.414214e+001  1.500000e+001
    endloop
  endfacet
  facet normal  0.000000e+000  0.000000e+000  1.000000e+000
    outer loop
      vertex  7.000000e+001  5.000000e+001  1.500000e+001
      vertex -3.585786e+001  6.414214e+001  1.500000e+001
      vertex -2.171573e+001  5.000000e+001  1.500000e+001
    endloop
  endfacet
  facet normal  -0.000000e+000  0.000000e+000  1.000000e+000
    outer loop
      vertex  7.000000e+001  5.000000e+001  1.500000e+001
      vertex -2.171573e+001  5.000000e+001  1.500000e+001
      vertex -3.585786e+001  3.585786e+001  1.500000e+001
    endloop
  endfacet
  facet normal  0.000000e+000  0.000000e+000  1.000000e+000
    outer loop
      vertex  7.000000e+001  5.000000e+001  1.500000e+001
      vertex -3.585786e+001  3.585786e+001  1.500000e+001
      vertex  2.000000e+001  4.000000e+001  1.500000e+001
    endloop
  endfacet
  facet normal  0.000000e+000  -0.000000e+000  1.000000e+000
    outer loop
      vertex -2.000000e+001  2.000000e+001  1.500000e+001
      vertex -1.000000e+001  1.000000e+001  1.500000e+001
      vertex  1.000000e+001  3.000000e+001  1.500000e+001
    endloop
  endfacet
  facet normal  0.000000e+000  0.000000e+000  9.999999e-001
    outer loop
      vertex -2.000000e+001  2.000000e+001  1.500000e+001
      vertex  1.000000e+001  3.000000e+001  1.500000e+001
      vertex -3.585786e+001  3.585786e+001  1.500000e+001
    endloop
  endfacet
  facet normal  0.000000e+000  0.000000e+000  9.999999e-001
    outer loop
      vertex -2.000000e+001  2.000000e+001  1.500000e+001
      vertex -3.585786e+001  3.585786e+001  1.500000e+001
      vertex -4.000000e+001  2.000000e+001  1.500000e+001
    endloop
  endfacet
  facet normal  -0.000000e+000  0.000000e+000  1.000000e+000
    outer loop
      vertex -2.000000e+001  2.000000e+001  1.500000e+001
      vertex -4.000000e+001  2.000000e+001  1.500000e+001
      vertex -3.000000e+001  1.000000e+001  1.500000e+001
    endloop
  endfacet
  facet normal  0.000000e+000  0.000000e+000  1.000000e+000
    outer loop
      vertex -3.585786e+001  3.585786e+001  1.500000e+001
      vertex -6.000000e+001  4.000000e+001  1.500000e+001
      vertex -4.000000e+001  2.000000e+001  1.500000e+001
    endloop
  endfacet
  facet normal  0.000000e+000  0.000000e+000  1.000000e+000
    outer loop
      vertex -4.000000e+001  2.000000e+001  1.500000e+001
      vertex -6.000000e+001  4.000000e+001  1.500000e+001
      vertex -7.000000e+001  3.000000e+001  1.500000e+001
    endloop
  endfacet
  facet normal  0.000000e+000  0.000000e+000  1.000000e+000
    outer loop
      vertex -4.000000e+001  2.000000e+001  1.500000e+001
      vertex -7.000000e+001  3.000000e+001  1.500000e+001
      vertex -6.000000e+001  2.000000e+001  1.500000e+001
    endloop
  endfacet
  facet normal  7.071068e-001 -7.071068e-001  0.000000e+000
    outer loop
      vertex  0.000000e+000 -1.200000e+002  0.000000e+000
      vertex  1.200000e+002 -2.131628e-014  0.000000e+000
      vertex  0.000000e+000 -1.200000e+002  5.000000e+000
    endloop
  endfacet
  facet normal  7.071068e-001 -7.071068e-001  0.000000e+000
    outer loop
      vertex  0.000000e+000 -1.200000e+002  5.000000e+000
      vertex  1.200000e+002 -2.131628e-014  0.000000e+000
      vertex  7.000000e+001 -5.000000e+001  5.000000e+000
    endloop
  endfacet
  facet normal  7.071067e-001 -7.071067e-001  1.758503e-015
    outer loop
      vertex  1.200000e+002 -2.131628e-014  0.000000e+000
      vertex  1.200000e+002  3.552714e-015  1.000000e+001
      vertex  7.000000e+001 -5.000000e+001  5.000000e+000
    endloop
  endfacet
  facet normal  7.071067e-001 -7.071067e-001  0.000000e+000
    outer loop
      vertex  7.000000e+001 -5.000000e+001  5.000000e+000
      vertex  1.200000e+002  3.552714e-015  1.000000e+001
      vertex  7.000000e+001 -5.000000e+001  1.000000e+001
    endloop
  endfacet
  facet normal -7.071068e-001 -7.071068e-001  0.000000e+000
    outer loop
      vertex  0.000000e+000 -1.200000e+002  5.000000e+000
      vertex -1.200000e+002  0.000000e+000  5.000000e+000
      vertex  0.000000e+000 -1.200000e+002  0.000000e+000
    endloop
  endfacet
  facet normal -7.071068e-001 -7.071068e-001  0.000000e+000
    outer loop
      vertex  0.000000e+000 -1.200000e+002  0.000000e+000
      vertex -1.200000e+002  0.000000e+000  5.000000e+000
      vertex -1.200000e+002  0.000000e+000  0.000000e+000
    endloop
  endfacet
  facet normal  7.071068e-001  7.071068e-001  0.000000e+000
    outer loop
      vertex  1.200000e+002 -2.131628e-014  0.000000e+000
      vertex -7.105427e-015  1.200000e+002  0.000000e+000
      vertex  1.200000e+002  3.552714e-015  1.000000e+001
    endloop
  endfacet
  facet normal  7.071067e-001  7.071067e-001  0.000000e+000
    outer loop
      vertex  1.200000e+002  3.552714e-015  1.000000e+001
      vertex -7.105427e-015  1.200000e+002  0.000000e+000
      vertex  7.000000e+001  5.000000e+001  1.000000e+001
    endloop
  endfacet
  facet normal  7.071068e-001  7.071068e-001 -1.004859e-015
    outer loop
      vertex -7.105427e-015  1.200000e+002  0.000000e+000
      vertex  1.421085e-014  1.200000e+002  1.500000e+001
      vertex  7.000000e+001  5.000000e+001  1.000000e+001
    endloop
  endfacet
  facet normal  7.071068e-001  7.071068e-001  -0.000000e+000
    outer loop
      vertex  7.000000e+001  5.000000e+001  1.000000e+001
      vertex  1.421085e-014  1.200000e+002  1.500000e+001
      vertex  7.000000e+001  5.000000e+001  1.500000e+001
    endloop
  endfacet
  facet normal  7.071068e-001 -7.071068e-001  0.000000e+000
    outer loop
      vertex  6.000000e+001  4.000000e+001  1.500000e+001
      vertex  6.000000e+001  4.000000e+001  1.000000e+001
      vertex  7.000000e+001  5.000000e+001  1.500000e+001
    endloop
  endfacet
  facet normal  7.071068e-001 -7.071068e-001  0.000000e+000
    outer loop
      vertex  7.000000e+001  5.000000e+001  1.500000e+001
      vertex  6.000000e+001  4.000000e+001  1.000000e+001
      vertex  7.000000e+001  5.000000e+001  1.000000e+001
    endloop
  endfacet
  facet normal  7.071068e-001 -7.071068e-001  0.000000e+000
    outer loop
      vertex -4.000000e+001  2.000000e+001  1.500000e+001
      vertex -5.000000e+001  1.000000e+001  1.500000e+001
      vertex -4.000000e+001  2.000000e+001  1.000000e+001
    endloop
  endfacet
  facet normal  7.071068e-001 -7.071068e-001  0.000000e+000
    outer loop
      vertex -4.000000e+001  2.000000e+001  1.000000e+001
      vertex -5.000000e+001  1.000000e+001  1.500000e+001
      vertex -5.000000e+001  1.000000e+001  1.000000e+001
    endloop
  endfacet
  facet normal -7.071068e-001 -7.071068e-001  0.000000e+000
    outer loop
      vertex -5.000000e+001  1.000000e+001  1.500000e+001
      vertex -6.000000e+001  2.000000e+001  1.500000e+001
      vertex -5.000000e+001  1.000000e+001  1.000000e+001
    endloop
  endfacet
  facet normal -7.071068e-001 -7.071068e-001  0.000000e+000
    outer loop
      vertex -5.000000e+001  1.000000e+001  1.000000e+001
      vertex -6.000000e+001  2.000000e+001  1.500000e+001
      vertex -6.000000e+001  2.000000e+001  1.000000e+001
    endloop
  endfacet
  facet normal -7.071068e-001 -7.071068e-001  0.000000e+000
    outer loop
      vertex -6.000000e+001  2.000000e+001  1.500000e+001
      vertex -7.000000e+001  3.000000e+001  1.500000e+001
      vertex -6.000000e+001  2.000000e+001  1.000000e+001
    endloop
  endfacet
  facet normal -7.071068e-001 -7.071068e-001  0.000000e+000
    outer loop
      vertex -6.000000e+001  2.000000e+001  1.000000e+001
      vertex -7.000000e+001  3.000000e+001  1.500000e+001
      vertex -7.000000e+001  3.000000e+001  1.000000e+001
    endloop
  endfacet
  facet normal -7.071068e-001  7.071068e-001  0.000000e+000
    outer loop
      vertex -7.000000e+001  3.000000e+001  1.500000e+001
      vertex -6.000000e+001  4.000000e+001  1.500000e+001
      vertex -7.000000e+001  3.000000e+001  1.000000e+001
    endloop
  endfacet
  facet normal -7.071068e-001  7.071068e-001  0.000000e+000
    outer loop
      vertex -7.000000e+001  3.000000e+001  1.000000e+001
      vertex -6.000000e+001  4.000000e+001  1.500000e+001
      vertex -6.000000e+001  4.000000e+001  1.000000e+001
    endloop
  endfacet
  facet normal -7.071068e-001 -7.071068e-001  0.000000e+000
    outer loop
      vertex -6.000000e+001  4.000000e+001  1.500000e+001
      vertex -7.000000e+001  5.000000e+001  1.500000e+001
      vertex -6.000000e+001  4.000000e+001  1.000000e+001
    endloop
  endfacet
  facet normal -7.071068e-001 -7.071068e-001  0.000000e+000
    outer loop
      vertex -6.000000e+001  4.000000e+001  1.000000e+001
      vertex -7.000000e+001  5.000000e+001  1.500000e+001
      vertex -7.000000e+001  5.000000e+001  1.000000e+001
    endloop
  endfacet
  facet normal  0.000000e+000  0.000000e+000  1.000000e+000
    outer loop
      vertex  1.000000e+001 -3.000000e+001  1.000000e+001
      vertex  3.000000e+001 -3.000000e+001  1.000000e+001
      vertex  0.000000e+000 -2.000000e+001  1.000000e+001
    endloop
  endfacet
  facet normal  0.000000e+000  -0.000000e+000  1.000000e+000
    outer loop
      vertex  1.000000e+001 -3.000000e+001  1.000000e+001
      vertex  2.000000e+001 -4.000000e+001  1.000000e+001
      vertex  3.000000e+001 -3.000000e+001  1.000000e+001
    endloop
  endfacet
  facet normal  0.000000e+000  0.000000e+000  1.000000e+000
    outer loop
      vertex  4.000000e+001 -4.000000e+001  1.000000e+001
      vertex  6.000000e+001 -4.000000e+001  1.000000e+001
      vertex  3.000000e+001 -3.000000e+001  1.000000e+001
    endloop
  endfacet
  facet normal  0.000000e+000  -0.000000e+000  1.000000e+000
    outer loop
      vertex  4.000000e+001 -4.000000e+001  1.000000e+001
      vertex  5.000000e+001 -5.000000e+001  1.000000e+001
      vertex  6.000000e+001 -4.000000e+001  1.000000e+001
    endloop
  endfacet
  facet normal  -0.000000e+000  0.000000e+000  1.000000e+000
    outer loop
      vertex  5.000000e+001  3.000000e+001  1.000000e+001
      vertex  3.000000e+001  3.000000e+001  1.000000e+001
      vertex -1.000000e+001  1.000000e+001  1.000000e+001
    endloop
  endfacet
  facet normal  0.000000e+000  0.000000e+000  1.000000e+000
    outer loop
      vertex  5.000000e+001  3.000000e+001  1.000000e+001
      vertex  4.000000e+001  4.000000e+001  1.000000e+001
      vertex  3.000000e+001  3.000000e+001  1.000000e+001
    endloop
  endfacet
  facet normal  -0.000000e+000  0.000000e+000  1.000000e+000
    outer loop
      vertex  3.000000e+001  3.000000e+001  1.000000e+001
      vertex  1.000000e+001  3.000000e+001  1.000000e+001
      vertex -1.000000e+001  1.000000e+001  1.000000e+001
    endloop
  endfacet
  facet normal  0.000000e+000  0.000000e+000  1.000000e+000
    outer loop
      vertex  3.000000e+001  3.000000e+001  1.000000e+001
      vertex  2.000000e+001  4.000000e+001  1.000000e+001
      vertex  1.000000e+001  3.000000e+001  1.000000e+001
    endloop
  endfacet
  facet normal  -0.000000e+000  0.000000e+000  1.000000e+000
    outer loop
      vertex  1.200000e+002  3.552714e-015  1.000000e+001
      vertex  6.000000e+001 -4.000000e+001  1.000000e+001
      vertex  7.000000e+001 -5.000000e+001  1.000000e+001
    endloop
  endfacet
  facet normal  0.000000e+000  0.000000e+000  1.000000e+000
    outer loop
      vertex -3.000000e+001  1.000000e+001  1.000000e+001
      vertex -1.000000e+001  1.000000e+001  1.000000e+001
      vertex -2.000000e+001  2.000000e+001  1.000000e+001
    endloop
  endfacet
  facet normal  0.000000e+000  0.000000e+000  1.000000e+000
    outer loop
      vertex -5.000000e+001  1.000000e+001  1.000000e+001
      vertex -3.000000e+001  1.000000e+001  1.000000e+001
      vertex -4.000000e+001  2.000000e+001  1.000000e+001
    endloop
  endfacet
  facet normal  -0.000000e+000  -0.000000e+000  1.000000e+000
    outer loop
      vertex -1.000000e+001 -1.000000e+001  1.000000e+001
      vertex  0.000000e+000 -2.000000e+001  1.000000e+001
      vertex  3.000000e+001 -3.000000e+001  1.000000e+001
    endloop
  endfacet
  facet normal  -0.000000e+000  -0.000000e+000  1.000000e+000
    outer loop
      vertex -1.000000e+001 -1.000000e+001  1.000000e+001
      vertex  3.000000e+001 -3.000000e+001  1.000000e+001
      vertex  6.000000e+001 -4.000000e+001  1.000000e+001
    endloop
  endfacet
  facet normal  0.000000e+000  -0.000000e+000  1.000000e+000
    outer loop
      vertex -1.000000e+001 -1.000000e+001  1.000000e+001
      vertex  6.000000e+001 -4.000000e+001  1.000000e+001
      vertex  1.200000e+002  3.552714e-015  1.000000e+001
    endloop
  endfacet
  facet normal  0.000000e+000  -0.000000e+000  1.000000e+000
    outer loop
      vertex -3.000000e+001 -1.000000e+001  1.000000e+001
      vertex -2.000000e+001 -2.000000e+001  1.000000e+001
      vertex -1.000000e+001 -1.000000e+001  1.000000e+001
    endloop
  endfacet
  facet normal  0.000000e+000  -0.000000e+000  1.000000e+000
    outer loop
      vertex -3.000000e+001 -1.000000e+001  1.000000e+001
      vertex -1.000000e+001 -1.000000e+001  1.000000e+001
      vertex  1.200000e+002  3.552714e-015  1.000000e+001
    endloop
  endfacet
  facet normal  0.000000e+000  0.000000e+000  1.000000e+000
    outer loop
      vertex -3.000000e+001 -1.000000e+001  1.000000e+001
      vertex  1.200000e+002  3.552714e-015  1.000000e+001
      vertex -5.000000e+001  1.000000e+001  1.000000e+001
    endloop
  endfacet
  facet normal  0.000000e+000  0.000000e+000  1.000000e+000
    outer loop
      vertex  1.200000e+002  3.552714e-015  1.000000e+001
      vertex  7.000000e+001  5.000000e+001  1.000000e+001
      vertex  6.000000e+001  4.000000e+001  1.000000e+001
    endloop
  endfacet
  facet normal  0.000000e+000  0.000000e+000  1.000000e+000
    outer loop
      vertex  1.200000e+002  3.552714e-015  1.000000e+001
      vertex  6.000000e+001  4.000000e+001  1.000000e+001
      vertex  5.000000e+001  3.000000e+001  1.000000e+001
    endloop
  endfacet
  facet normal  0.000000e+000  0.000000e+000  1.000000e+000
    outer loop
      vertex  1.200000e+002  3.552714e-015  1.000000e+001
      vertex  5.000000e+001  3.000000e+001  1.000000e+001
      vertex -1.000000e+001  1.000000e+001  1.000000e+001
    endloop
  endfacet
  facet normal  0.000000e+000  0.000000e+000  1.000000e+000
    outer loop
      vertex  1.200000e+002  3.552714e-015  1.000000e+001
      vertex -1.000000e+001  1.000000e+001  1.000000e+001
      vertex -3.000000e+001  1.000000e+001  1.000000e+001
    endloop
  endfacet
  facet normal  0.000000e+000  0.000000e+000  1.000000e+000
    outer loop
      vertex  1.200000e+002  3.552714e-015  1.000000e+001
      vertex -3.000000e+001  1.000000e+001  1.000000e+001
      vertex -5.000000e+001  1.000000e+001  1.000000e+001
    endloop
  endfacet
  facet normal  0.000000e+000  0.000000e+000  1.000000e+000
    outer loop
      vertex -7.000000e+001  5.000000e+001  1.000000e+001
      vertex -8.000000e+001  4.000000e+001  1.000000e+001
      vertex -6.000000e+001  4.000000e+001  1.000000e+001
    endloop
  endfacet
  facet normal  0.000000e+000  0.000000e+000  1.000000e+000
    outer loop
      vertex -6.000000e+001  4.000000e+001  1.000000e+001
      vertex -8.000000e+001  4.000000e+001  1.000000e+001
      vertex -7.000000e+001  3.000000e+001  1.000000e+001
    endloop
  endfacet
  facet normal  0.000000e+000  0.000000e+000  1.000000e+000
    outer loop
      vertex -6.000000e+001 -3.552714e-015  1.000000e+001
      vertex -5.000000e+001  1.000000e+001  1.000000e+001
      vertex -8.000000e+001  2.000000e+001  1.000000e+001
    endloop
  endfacet
  facet normal  -0.000000e+000  0.000000e+000  1.000000e+000
    outer loop
      vertex -8.000000e+001  2.000000e+001  1.000000e+001
      vertex -5.000000e+001  1.000000e+001  1.000000e+001
      vertex -6.000000e+001  2.000000e+001  1.000000e+001
    endloop
  endfacet
  facet normal  0.000000e+000  0.000000e+000  1.000000e+000
    outer loop
      vertex -8.000000e+001  2.000000e+001  1.000000e+001
      vertex -6.000000e+001  2.000000e+001  1.000000e+001
      vertex -7.000000e+001  3.000000e+001  1.000000e+001
    endloop
  endfacet
  facet normal -7.071068e-001 -7.071068e-001  0.000000e+000
    outer loop
      vertex -3.000000e+001  1.000000e+001  1.500000e+001
      vertex -4.000000e+001  2.000000e+001  1.500000e+001
      vertex -3.000000e+001  1.000000e+001  1.000000e+001
    endloop
  endfacet
  facet normal -7.071068e-001 -7.071068e-001  0.000000e+000
    outer loop
      vertex -3.000000e+001  1.000000e+001  1.000000e+001
      vertex -4.000000e+001  2.000000e+001  1.500000e+001
      vertex -4.000000e+001  2.000000e+001  1.000000e+001
    endloop
  endfacet
  facet normal  7.071068e-001 -7.071068e-001  0.000000e+000
    outer loop
      vertex -3.000000e+001  1.000000e+001  1.000000e+001
      vertex -2.000000e+001  2.000000e+001  1.000000e+001
      vertex -3.000000e+001  1.000000e+001  1.500000e+001
    endloop
  endfacet
  facet normal  7.071068e-001 -7.071068e-001  0.000000e+000
    outer loop
      vertex -3.000000e+001  1.000000e+001  1.500000e+001
      vertex -2.000000e+001  2.000000e+001  1.000000e+001
      vertex -2.000000e+001  2.000000e+001  1.500000e+001
    endloop
  endfacet
  facet normal -7.071068e-001 -7.071068e-001  0.000000e+000
    outer loop
      vertex -1.000000e+001  1.000000e+001  1.500000e+001
      vertex -2.000000e+001  2.000000e+001  1.500000e+001
      vertex -1.000000e+001  1.000000e+001  1.000000e+001
    endloop
  endfacet
  facet normal -7.071068e-001 -7.071068e-001  0.000000e+000
    outer loop
      vertex -1.000000e+001  1.000000e+001  1.000000e+001
      vertex -2.000000e+001  2.000000e+001  1.500000e+001
      vertex -2.000000e+001  2.000000e+001  1.000000e+001
    endloop
  endfacet
  facet normal  7.071068e-001 -7.071068e-001  0.000000e+000
    outer loop
      vertex -1.000000e+001  1.000000e+001  1.500000e+001
      vertex -1.000000e+001  1.000000e+001  1.000000e+001
      vertex  1.000000e+001  3.000000e+001  1.500000e+001
    endloop
  endfacet
  facet normal  7.071068e-001 -7.071068e-001  0.000000e+000
    outer loop
      vertex  1.000000e+001  3.000000e+001  1.500000e+001
      vertex -1.000000e+001  1.000000e+001  1.000000e+001
      vertex  1.000000e+001  3.000000e+001  1.000000e+001
    endloop
  endfacet
  facet normal  7.071068e-001 -7.071068e-001  0.000000e+000
    outer loop
      vertex  1.000000e+001  3.000000e+001  1.500000e+001
      vertex  1.000000e+001  3.000000e+001  1.000000e+001
      vertex  2.000000e+001  4.000000e+001  1.500000e+001
    endloop
  endfacet
  facet normal  7.071068e-001 -7.071068e-001  0.000000e+000
    outer loop
      vertex  2.000000e+001  4.000000e+001  1.500000e+001
      vertex  1.000000e+001  3.000000e+001  1.000000e+001
      vertex  2.000000e+001  4.000000e+001  1.000000e+001
    endloop
  endfacet
  facet normal -7.071068e-001 -7.071068e-001  0.000000e+000
    outer loop
      vertex  2.000000e+001  4.000000e+001  1.000000e+001
      vertex  3.000000e+001  3.000000e+001  1.000000e+001
      vertex  2.000000e+001  4.000000e+001  1.500000e+001
    endloop
  endfacet
  facet normal -7.071068e-001 -7.071068e-001  0.000000e+000
    outer loop
      vertex  2.000000e+001  4.000000e+001  1.500000e+001
      vertex  3.000000e+001  3.000000e+001  1.000000e+001
      vertex  3.000000e+001  3.000000e+001  1.500000e+001
    endloop
  endfacet
  facet normal  7.071068e-001 -7.071068e-001  0.000000e+000
    outer loop
      vertex  4.000000e+001  4.000000e+001  1.500000e+001
      vertex  3.000000e+001  3.000000e+001  1.500000e+001
      vertex  4.000000e+001  4.000000e+001  1.000000e+001
    endloop
  endfacet
  facet normal  7.071068e-001 -7.071068e-001  0.000000e+000
    outer loop
      vertex  4.000000e+001  4.000000e+001  1.000000e+001
      vertex  3.000000e+001  3.000000e+001  1.500000e+001
      vertex  3.000000e+001  3.000000e+001  1.000000e+001
    endloop
  endfacet
  facet normal -7.071068e-001 -7.071068e-001  0.000000e+000
    outer loop
      vertex  4.000000e+001  4.000000e+001  1.000000e+001
      vertex  5.000000e+001  3.000000e+001  1.000000e+001
      vertex  4.000000e+001  4.000000e+001  1.500000e+001
    endloop
  endfacet
  facet normal -7.071068e-001 -7.071068e-001  0.000000e+000
    outer loop
      vertex  4.000000e+001  4.000000e+001  1.500000e+001
      vertex  5.000000e+001  3.000000e+001  1.000000e+001
      vertex  5.000000e+001  3.000000e+001  1.500000e+001
    endloop
  endfacet
  facet normal  7.071068e-001 -7.071068e-001  0.000000e+000
    outer loop
      vertex  5.000000e+001  3.000000e+001  1.500000e+001
      vertex  5.000000e+001  3.000000e+001  1.000000e+001
      vertex  6.000000e+001  4.000000e+001  1.500000e+001
    endloop
  endfacet
  facet normal  7.071068e-001 -7.071068e-001  0.000000e+000
    outer loop
      vertex  6.000000e+001  4.000000e+001  1.500000e+001
      vertex  5.000000e+001  3.000000e+001  1.000000e+001
      vertex  6.000000e+001  4.000000e+001  1.000000e+001
    endloop
  endfacet
  facet normal  0.000000e+000  0.000000e+000  1.000000e+000
    outer loop
      vertex  5.000000e+001 -5.000000e+001  5.000000e+000
      vertex  7.000000e+001 -5.000000e+001  5.000000e+000
      vertex  6.000000e+001 -4.000000e+001  5.000000e+000
    endloop
  endfacet
  facet normal  0.000000e+000  0.000000e+000  1.000000e+000
    outer loop
      vertex  2.000000e+001 -4.000000e+001  5.000000e+000
      vertex  4.000000e+001 -4.000000e+001  5.000000e+000
      vertex  3.000000e+001 -3.000000e+001  5.000000e+000
    endloop
  endfacet
  facet normal  0.000000e+000  0.000000e+000  1.000000e+000
    outer loop
      vertex -2.000000e+001 -2.000000e+001  5.000000e+000
      vertex -1.776357e-015 -2.000000e+001  5.000000e+000
      vertex -1.000000e+001 -1.000000e+001  5.000000e+000
    endloop
  endfacet
  facet normal  0.000000e+000  0.000000e+000  1.000000e+000
    outer loop
      vertex -6.000000e+001 -3.552714e-015  5.000000e+000
      vertex -8.000000e+001  2.000000e+001  5.000000e+000
      vertex -1.090730e+002  2.853169e+000  5.000000e+000
    endloop
  endfacet
  facet normal  0.000000e+000  0.000000e+000  9.999999e-001
    outer loop
      vertex -6.000000e+001 -3.552714e-015  5.000000e+000
      vertex -1.090730e+002  2.853169e+000  5.000000e+000
      vertex -1.075730e+002  1.763356e+000  5.000000e+000
    endloop
  endfacet
  facet normal  0.000000e+000  0.000000e+000  1.000000e+000
    outer loop
      vertex -6.000000e+001 -3.552714e-015  5.000000e+000
      vertex -1.075730e+002  1.763356e+000  5.000000e+000
      vertex -1.070000e+002  0.000000e+000  5.000000e+000
    endloop
  endfacet
  facet normal  0.000000e+000  0.000000e+000  1.000000e+000
    outer loop
      vertex -6.000000e+001 -3.552714e-015  5.000000e+000
      vertex -1.070000e+002  0.000000e+000  5.000000e+000
      vertex -1.075730e+002 -1.763356e+000  5.000000e+000
    endloop
  endfacet
  facet normal  -0.000000e+000  0.000000e+000  1.000000e+000
    outer loop
      vertex -6.000000e+001 -3.552714e-015  5.000000e+000
      vertex -1.075730e+002 -1.763356e+000  5.000000e+000
      vertex -3.000000e+001 -1.000000e+001  5.000000e+000
    endloop
  endfacet
  facet normal  0.000000e+000  0.000000e+000  1.000000e+000
    outer loop
      vertex -6.000000e+001 -3.552714e-015  5.000000e+000
      vertex -3.000000e+001 -1.000000e+001  5.000000e+000
      vertex -5.000000e+001  1.000000e+001  5.000000e+000
    endloop
  endfacet
  facet normal  0.000000e+000  0.000000e+000  1.000000e+000
    outer loop
      vertex -1.200000e+002  0.000000e+000  5.000000e+000
      vertex  0.000000e+000 -1.200000e+002  5.000000e+000
      vertex -1.109270e+002 -2.853169e+000  5.000000e+000
    endloop
  endfacet
  facet normal  0.000000e+000  0.000000e+000  1.000000e+000
    outer loop
      vertex -1.200000e+002  0.000000e+000  5.000000e+000
      vertex -1.109270e+002 -2.853169e+000  5.000000e+000
      vertex -1.124270e+002 -1.763356e+000  5.000000e+000
    endloop
  endfacet
  facet normal  0.000000e+000  0.000000e+000  9.999999e-001
    outer loop
      vertex -1.200000e+002  0.000000e+000  5.000000e+000
      vertex -1.124270e+002 -1.763356e+000  5.000000e+000
      vertex -1.130000e+002  3.673819e-016  5.000000e+000
    endloop
  endfacet
  facet normal  0.000000e+000  -0.000000e+000  9.999999e-001
    outer loop
      vertex -1.200000e+002  0.000000e+000  5.000000e+000
      vertex -1.130000e+002  3.673819e-016  5.000000e+000
      vertex -1.124270e+002  1.763356e+000  5.000000e+000
    endloop
  endfacet
  facet normal  0.000000e+000  -0.000000e+000  1.000000e+000
    outer loop
      vertex -1.200000e+002  0.000000e+000  5.000000e+000
      vertex -1.124270e+002  1.763356e+000  5.000000e+000
      vertex -1.109270e+002  2.853169e+000  5.000000e+000
    endloop
  endfacet
  facet normal  0.000000e+000  0.000000e+000  1.000000e+000
    outer loop
      vertex -8.000000e+001  4.000000e+001  5.000000e+000
      vertex -1.200000e+002  0.000000e+000  5.000000e+000
      vertex -1.109270e+002  2.853169e+000  5.000000e+000
    endloop
  endfacet
  facet normal  0.000000e+000  0.000000e+000  1.000000e+000
    outer loop
      vertex -8.000000e+001  4.000000e+001  5.000000e+000
      vertex -1.109270e+002  2.853169e+000  5.000000e+000
      vertex -1.090730e+002  2.853169e+000  5.000000e+000
    endloop
  endfacet
  facet normal  0.000000e+000  0.000000e+000  1.000000e+000
    outer loop
      vertex -8.000000e+001  4.000000e+001  5.000000e+000
      vertex -1.090730e+002  2.853169e+000  5.000000e+000
      vertex -8.000000e+001  2.000000e+001  5.000000e+000
    endloop
  endfacet
  facet normal  0.000000e+000  0.000000e+000  1.000000e+000
    outer loop
      vertex -8.000000e+001  4.000000e+001  5.000000e+000
      vertex -8.000000e+001  2.000000e+001  5.000000e+000
      vertex -7.000000e+001  3.000000e+001  5.000000e+000
    endloop
  endfacet
  facet normal  0.000000e+000  0.000000e+000  1.000000e+000
    outer loop
      vertex  0.000000e+000 -1.200000e+002  5.000000e+000
      vertex  7.000000e+001 -5.000000e+001  5.000000e+000
      vertex  5.000000e+001 -5.000000e+001  5.000000e+000
    endloop
  endfacet
  facet normal  0.000000e+000  0.000000e+000  1.000000e+000
    outer loop
      vertex  0.000000e+000 -1.200000e+002  5.000000e+000
      vertex  5.000000e+001 -5.000000e+001  5.000000e+000
      vertex  4.000000e+001 -4.000000e+001  5.000000e+000
    endloop
  endfacet
  facet normal  0.000000e+000  0.000000e+000  1.000000e+000
    outer loop
      vertex  0.000000e+000 -1.200000e+002  5.000000e+000
      vertex  4.000000e+001 -4.000000e+001  5.000000e+000
      vertex  2.000000e+001 -4.000000e+001  5.000000e+000
    endloop
  endfacet
  facet normal  0.000000e+000  0.000000e+000  1.000000e+000
    outer loop
      vertex  0.000000e+000 -1.200000e+002  5.000000e+000
      vertex  2.000000e+001 -4.000000e+001  5.000000e+000
      vertex  1.000000e+001 -3.000000e+001  5.000000e+000
    endloop
  endfacet
  facet normal  0.000000e+000  0.000000e+000  1.000000e+000
    outer loop
      vertex  0.000000e+000 -1.200000e+002  5.000000e+000
      vertex  1.000000e+001 -3.000000e+001  5.000000e+000
      vertex -1.776357e-015 -2.000000e+001  5.000000e+000
    endloop
  endfacet
  facet normal  0.000000e+000  0.000000e+000  1.000000e+000
    outer loop
      vertex  0.000000e+000 -1.200000e+002  5.000000e+000
      vertex -1.776357e-015 -2.000000e+001  5.000000e+000
      vertex -2.000000e+001 -2.000000e+001  5.000000e+000
    endloop
  endfacet
  facet normal  0.000000e+000  0.000000e+000  1.000000e+000
    outer loop
      vertex  0.000000e+000 -1.200000e+002  5.000000e+000
      vertex -2.000000e+001 -2.000000e+001  5.000000e+000
      vertex -1.109270e+002 -2.853169e+000  5.000000e+000
    endloop
  endfacet
  facet normal  0.000000e+000  0.000000e+000  1.000000e+000
    outer loop
      vertex -3.000000e+001 -1.000000e+001  5.000000e+000
      vertex -1.075730e+002 -1.763356e+000  5.000000e+000
      vertex -1.090730e+002 -2.853169e+000  5.000000e+000
    endloop
  endfacet
  facet normal  0.000000e+000  0.000000e+000  1.000000e+000
    outer loop
      vertex -3.000000e+001 -1.000000e+001  5.000000e+000
      vertex -1.090730e+002 -2.853169e+000  5.000000e+000
      vertex -1.109270e+002 -2.853169e+000  5.000000e+000
    endloop
  endfacet
  facet normal  0.000000e+000  0.000000e+000  1.000000e+000
    outer loop
      vertex -3.000000e+001 -1.000000e+001  5.000000e+000
      vertex -1.109270e+002 -2.853169e+000  5.000000e+000
      vertex -2.000000e+001 -2.000000e+001  5.000000e+000
    endloop
  endfacet
  facet normal -7.071068e-001 -7.071068e-001  0.000000e+000
    outer loop
      vertex -3.000000e+001 -1.000000e+001  1.000000e+001
      vertex -5.000000e+001  1.000000e+001  1.000000e+001
      vertex -3.000000e+001 -1.000000e+001  5.000000e+000
    endloop
  endfacet
  facet normal -7.071068e-001 -7.071068e-001  0.000000e+000
    outer loop
      vertex -3.000000e+001 -1.000000e+001  5.000000e+000
      vertex -5.000000e+001  1.000000e+001  1.000000e+001
      vertex -5.000000e+001  1.000000e+001  5.000000e+000
    endloop
  endfacet
  facet normal  7.071068e-001 -7.071068e-001  0.000000e+000
    outer loop
      vertex -5.000000e+001  1.000000e+001  1.000000e+001
      vertex -6.000000e+001 -3.552714e-015  1.000000e+001
      vertex -5.000000e+001  1.000000e+001  5.000000e+000
    endloop
  endfacet
  facet normal  7.071068e-001 -7.071068e-001  0.000000e+000
    outer loop
      vertex -5.000000e+001  1.000000e+001  5.000000e+000
      vertex -6.000000e+001 -3.552714e-015  1.000000e+001
      vertex -6.000000e+001 -3.552714e-015  5.000000e+000
    endloop
  endfacet
  facet normal -7.071068e-001  7.071068e-001  0.000000e+000
    outer loop
      vertex -8.000000e+001  2.000000e+001  1.000000e+001
      vertex -7.000000e+001  3.000000e+001  1.000000e+001
      vertex -8.000000e+001  2.000000e+001  5.000000e+000
    endloop
  endfacet
  facet normal -7.071068e-001  7.071068e-001  0.000000e+000
    outer loop
      vertex -8.000000e+001  2.000000e+001  5.000000e+000
      vertex -7.000000e+001  3.000000e+001  1.000000e+001
      vertex -7.000000e+001  3.000000e+001  5.000000e+000
    endloop
  endfacet
  facet normal -7.071068e-001 -7.071068e-001  0.000000e+000
    outer loop
      vertex -7.000000e+001  3.000000e+001  1.000000e+001
      vertex -8.000000e+001  4.000000e+001  1.000000e+001
      vertex -7.000000e+001  3.000000e+001  5.000000e+000
    endloop
  endfacet
  facet normal -7.071068e-001 -7.071068e-001  0.000000e+000
    outer loop
      vertex -7.000000e+001  3.000000e+001  5.000000e+000
      vertex -8.000000e+001  4.000000e+001  1.000000e+001
      vertex -8.000000e+001  4.000000e+001  5.000000e+000
    endloop
  endfacet
  facet normal -7.071068e-001 -7.071068e-001  0.000000e+000
    outer loop
      vertex  7.000000e+001 -5.000000e+001  1.000000e+001
      vertex  6.000000e+001 -4.000000e+001  1.000000e+001
      vertex  7.000000e+001 -5.000000e+001  5.000000e+000
    endloop
  endfacet
  facet normal -7.071068e-001 -7.071068e-001  0.000000e+000
    outer loop
      vertex  7.000000e+001 -5.000000e+001  5.000000e+000
      vertex  6.000000e+001 -4.000000e+001  1.000000e+001
      vertex  6.000000e+001 -4.000000e+001  5.000000e+000
    endloop
  endfacet
  facet normal  7.071068e-001 -7.071068e-001  0.000000e+000
    outer loop
      vertex  6.000000e+001 -4.000000e+001  1.000000e+001
      vertex  5.000000e+001 -5.000000e+001  1.000000e+001
      vertex  6.000000e+001 -4.000000e+001  5.000000e+000
    endloop
  endfacet
  facet normal  7.071068e-001 -7.071068e-001  0.000000e+000
    outer loop
      vertex  6.000000e+001 -4.000000e+001  5.000000e+000
      vertex  5.000000e+001 -5.000000e+001  1.000000e+001
      vertex  5.000000e+001 -5.000000e+001  5.000000e+000
    endloop
  endfacet
  facet normal -7.071068e-001 -7.071068e-001  0.000000e+000
    outer loop
      vertex  5.000000e+001 -5.000000e+001  1.000000e+001
      vertex  4.000000e+001 -4.000000e+001  1.000000e+001
      vertex  5.000000e+001 -5.000000e+001  5.000000e+000
    endloop
  endfacet
  facet normal -7.071068e-001 -7.071068e-001  0.000000e+000
    outer loop
      vertex  5.000000e+001 -5.000000e+001  5.000000e+000
      vertex  4.000000e+001 -4.000000e+001  1.000000e+001
      vertex  4.000000e+001 -4.000000e+001  5.000000e+000
    endloop
  endfacet
  facet normal -7.071068e-001 -7.071068e-001  0.000000e+000
    outer loop
      vertex  4.000000e+001 -4.000000e+001  1.000000e+001
      vertex  3.000000e+001 -3.000000e+001  1.000000e+001
      vertex  4.000000e+001 -4.000000e+001  5.000000e+000
    endloop
  endfacet
  facet normal -7.071068e-001 -7.071068e-001  0.000000e+000
    outer loop
      vertex  4.000000e+001 -4.000000e+001  5.000000e+000
      vertex  3.000000e+001 -3.000000e+001  1.000000e+001
      vertex  3.000000e+001 -3.000000e+001  5.000000e+000
    endloop
  endfacet
  facet normal  7.071068e-001 -7.071068e-001  0.000000e+000
    outer loop
      vertex  3.000000e+001 -3.000000e+001  1.000000e+001
      vertex  2.000000e+001 -4.000000e+001  1.000000e+001
      vertex  3.000000e+001 -3.000000e+001  5.000000e+000
    endloop
  endfacet
  facet normal  7.071068e-001 -7.071068e-001  0.000000e+000
    outer loop
      vertex  3.000000e+001 -3.000000e+001  5.000000e+000
      vertex  2.000000e+001 -4.000000e+001  1.000000e+001
      vertex  2.000000e+001 -4.000000e+001  5.000000e+000
    endloop
  endfacet
  facet normal -7.071068e-001 -7.071068e-001  0.000000e+000
    outer loop
      vertex  2.000000e+001 -4.000000e+001  1.000000e+001
      vertex  1.000000e+001 -3.000000e+001  1.000000e+001
      vertex  2.000000e+001 -4.000000e+001  5.000000e+000
    endloop
  endfacet
  facet normal -7.071068e-001 -7.071068e-001  0.000000e+000
    outer loop
      vertex  2.000000e+001 -4.000000e+001  5.000000e+000
      vertex  1.000000e+001 -3.000000e+001  1.000000e+001
      vertex  1.000000e+001 -3.000000e+001  5.000000e+000
    endloop
  endfacet
  facet normal -7.071068e-001 -7.071068e-001  0.000000e+000
    outer loop
      vertex  1.000000e+001 -3.000000e+001  1.000000e+001
      vertex  0.000000e+000 -2.000000e+001  1.000000e+001
      vertex  1.000000e+001 -3.000000e+001  5.000000e+000
    endloop
  endfacet
  facet normal -7.071068e-001 -7.071068e-001  0.000000e+000
    outer loop
      vertex  1.000000e+001 -3.000000e+001  5.000000e+000
      vertex  0.000000e+000 -2.000000e+001  1.000000e+001
      vertex -1.776357e-015 -2.000000e+001  5.000000e+000
    endloop
  endfacet
  facet normal -7.071068e-001 -7.071068e-001  0.000000e+000
    outer loop
      vertex  0.000000e+000 -2.000000e+001  1.000000e+001
      vertex -1.000000e+001 -1.000000e+001  1.000000e+001
      vertex -1.776357e-015 -2.000000e+001  5.000000e+000
    endloop
  endfacet
  facet normal -7.071068e-001 -7.071068e-001  0.000000e+000
    outer loop
      vertex -1.776357e-015 -2.000000e+001  5.000000e+000
      vertex -1.000000e+001 -1.000000e+001  1.000000e+001
      vertex -1.000000e+001 -1.000000e+001  5.000000e+000
    endloop
  endfacet
  facet normal  7.071068e-001 -7.071068e-001  0.000000e+000
    outer loop
      vertex -1.000000e+001 -1.000000e+001  1.000000e+001
      vertex -2.000000e+001 -2.000000e+001  1.000000e+001
      vertex -1.000000e+001 -1.000000e+001  5.000000e+000
    endloop
  endfacet
  facet normal  7.071068e-001 -7.071068e-001  0.000000e+000
    outer loop
      vertex -1.000000e+001 -1.000000e+001  5.000000e+000
      vertex -2.000000e+001 -2.000000e+001  1.000000e+001
      vertex -2.000000e+001 -2.000000e+001  5.000000e+000
    endloop
  endfacet
  facet normal -7.071068e-001 -7.071068e-001  0.000000e+000
    outer loop
      vertex -2.000000e+001 -2.000000e+001  1.000000e+001
      vertex -3.000000e+001 -1.000000e+001  1.000000e+001
      vertex -2.000000e+001 -2.000000e+001  5.000000e+000
    endloop
  endfacet
  facet normal -7.071068e-001 -7.071068e-001  0.000000e+000
    outer loop
      vertex -2.000000e+001 -2.000000e+001  5.000000e+000
      vertex -3.000000e+001 -1.000000e+001  1.000000e+001
      vertex -3.000000e+001 -1.000000e+001  5.000000e+000
    endloop
  endfacet
  facet normal -7.071068e-001 -7.071068e-001  0.000000e+000
    outer loop
      vertex -6.000000e+001 -3.552714e-015  1.000000e+001
      vertex -8.000000e+001  2.000000e+001  1.000000e+001
      vertex -6.000000e+001 -3.552714e-015  5.000000e+000
    endloop
  endfacet
  facet normal -7.071068e-001 -7.071068e-001  0.000000e+000
    outer loop
      vertex -6.000000e+001 -3.552714e-015  5.000000e+000
      vertex -8.000000e+001  2.000000e+001  1.000000e+001
      vertex -8.000000e+001  2.000000e+001  5.000000e+000
    endloop
  endfacet
  facet normal  0.000000e+000  1.000000e+000  -0.000000e+000
    outer loop
      vertex -1.016581e+002  5.000000e+000  1.236656e+002
      vertex -1.032471e+002  5.000000e+000  1.199794e+002
      vertex -1.296753e+002  5.000000e+000  1.357435e+002
    endloop
  endfacet
  facet normal  0.000000e+000  1.000000e+000  0.000000e+000
    outer loop
      vertex -1.296753e+002  5.000000e+000  1.357435e+002
      vertex -1.032471e+002  5.000000e+000  1.199794e+002
      vertex -1.312644e+002  5.000000e+000  1.320573e+002
    endloop
  endfacet
  facet normal  0.000000e+000 -1.000000e+000  0.000000e+000
    outer loop
      vertex -1.016581e+002 -5.000000e+000  1.236656e+002
      vertex -1.296753e+002 -5.000000e+000  1.357435e+002
      vertex -1.032471e+002 -5.000000e+000  1.199794e+002
    endloop
  endfacet
  facet normal  0.000000e+000 -1.000000e+000  0.000000e+000
    outer loop
      vertex -1.032471e+002 -5.000000e+000  1.199794e+002
      vertex -1.296753e+002 -5.000000e+000  1.357435e+002
      vertex -1.312644e+002 -5.000000e+000  1.320573e+002
    endloop
  endfacet
  facet normal -9.183064e-001  0.000000e+000  3.958705e-001
    outer loop
      vertex -1.296753e+002 -5.000000e+000  1.357435e+002
      vertex -1.296753e+002  5.000000e+000  1.357435e+002
      vertex -1.312644e+002 -5.000000e+000  1.320573e+002
    endloop
  endfacet
  facet normal -9.183064e-001  0.000000e+000  3.958705e-001
    outer loop
      vertex -1.312644e+002 -5.000000e+000  1.320573e+002
      vertex -1.296753e+002  5.000000e+000  1.357435e+002
      vertex -1.312644e+002  5.000000e+000  1.320573e+002
    endloop
  endfacet
  facet normal  3.958703e-001  0.000000e+000  9.183064e-001
    outer loop
      vertex -1.016581e+002  5.000000e+000  1.236656e+002
      vertex -1.296753e+002  5.000000e+000  1.357435e+002
      vertex -1.016581e+002 -5.000000e+000  1.236656e+002
    endloop
  endfacet
  facet normal  3.958703e-001  0.000000e+000  9.183064e-001
    outer loop
      vertex -1.016581e+002 -5.000000e+000  1.236656e+002
      vertex -1.296753e+002  5.000000e+000  1.357435e+002
      vertex -1.296753e+002 -5.000000e+000  1.357435e+002
    endloop
  endfacet
  facet normal -3.958704e-001 -4.401583e-007 -9.183064e-001
    outer loop
      vertex -1.032471e+002 -5.000000e+000  1.199794e+002
      vertex -1.102894e+002 -2.986009e+000  1.230153e+002
      vertex -1.086312e+002 -2.669538e+000  1.223005e+002
    endloop
  endfacet
  facet normal -3.958700e-001  6.347603e-007 -9.183065e-001
    outer loop
      vertex -1.032471e+002 -5.000000e+000  1.199794e+002
      vertex -1.086312e+002 -2.669538e+000  1.223005e+002
      vertex -1.077523e+002 -1.986971e+000  1.219216e+002
    endloop
  endfacet
  facet normal -3.958715e-001 -2.148438e-006 -9.183059e-001
    outer loop
      vertex -1.032471e+002 -5.000000e+000  1.199794e+002
      vertex -1.077523e+002 -1.986971e+000  1.219216e+002
      vertex -1.071377e+002 -8.986028e-001  1.216566e+002
    endloop
  endfacet
  facet normal -3.958706e-001 -1.101033e-006 -9.183064e-001
    outer loop
      vertex -1.032471e+002 -5.000000e+000  1.199794e+002
      vertex -1.071377e+002 -8.986028e-001  1.216566e+002
      vertex -1.070000e+002  0.000000e+000  1.215973e+002
    endloop
  endfacet
  facet normal -3.958694e-001  0.000000e+000 -9.183068e-001
    outer loop
      vertex -1.032471e+002 -5.000000e+000  1.199794e+002
      vertex -1.070000e+002  0.000000e+000  1.215973e+002
      vertex -1.032471e+002  5.000000e+000  1.199794e+002
    endloop
  endfacet
  facet normal -3.958701e-001  -0.000000e+000 -9.183065e-001
    outer loop
      vertex -1.312644e+002 -5.000000e+000  1.320573e+002
      vertex -1.312644e+002  5.000000e+000  1.320573e+002
      vertex -1.130000e+002  3.673819e-016  1.241838e+002
    endloop
  endfacet
  facet normal -3.958703e-001  1.080422e-006 -9.183064e-001
    outer loop
      vertex -1.312644e+002 -5.000000e+000  1.320573e+002
      vertex -1.130000e+002  3.673819e-016  1.241838e+002
      vertex -1.126125e+002 -1.474661e+000  1.240167e+002
    endloop
  endfacet
  facet normal -3.958698e-001 -2.320225e-006 -9.183067e-001
    outer loop
      vertex -1.312644e+002 -5.000000e+000  1.320573e+002
      vertex -1.126125e+002 -1.474661e+000  1.240167e+002
      vertex -1.118069e+002 -2.394781e+000  1.236695e+002
    endloop
  endfacet
  facet normal -3.958698e-001 -1.989201e-006 -9.183066e-001
    outer loop
      vertex -1.312644e+002 -5.000000e+000  1.320573e+002
      vertex -1.118069e+002 -2.394781e+000  1.236695e+002
      vertex -1.102894e+002 -2.986009e+000  1.230153e+002
    endloop
  endfacet
  facet normal -3.958701e-001  9.347006e-007 -9.183066e-001
    outer loop
      vertex -1.312644e+002 -5.000000e+000  1.320573e+002
      vertex -1.102894e+002 -2.986009e+000  1.230153e+002
      vertex -1.032471e+002 -5.000000e+000  1.199794e+002
    endloop
  endfacet
  facet normal -3.958705e-001  1.014253e-006 -9.183064e-001
    outer loop
      vertex -1.032471e+002  5.000000e+000  1.199794e+002
      vertex -1.070000e+002  0.000000e+000  1.215973e+002
      vertex -1.073875e+002  1.474661e+000  1.217643e+002
    endloop
  endfacet
  facet normal -3.958720e-001  3.017491e-006 -9.183058e-001
    outer loop
      vertex -1.032471e+002  5.000000e+000  1.199794e+002
      vertex -1.073875e+002  1.474661e+000  1.217643e+002
      vertex -1.081931e+002  2.394781e+000  1.221116e+002
    endloop
  endfacet
  facet normal -3.958698e-001 -1.900505e-006 -9.183066e-001
    outer loop
      vertex -1.032471e+002  5.000000e+000  1.199794e+002
      vertex -1.081931e+002  2.394781e+000  1.221116e+002
      vertex -1.097106e+002  2.986009e+000  1.227658e+002
    endloop
  endfacet
  facet normal -3.958707e-001  1.659011e-006 -9.183063e-001
    outer loop
      vertex -1.032471e+002  5.000000e+000  1.199794e+002
      vertex -1.097106e+002  2.986009e+000  1.227658e+002
      vertex -1.113688e+002  2.669538e+000  1.234806e+002
    endloop
  endfacet
  facet normal -3.958701e-001 -1.107469e-006 -9.183065e-001
    outer loop
      vertex -1.312644e+002  5.000000e+000  1.320573e+002
      vertex -1.032471e+002  5.000000e+000  1.199794e+002
      vertex -1.113688e+002  2.669538e+000  1.234806e+002
    endloop
  endfacet
  facet normal -3.958699e-001  4.870776e-007 -9.183066e-001
    outer loop
      vertex -1.312644e+002  5.000000e+000  1.320573e+002
      vertex -1.113688e+002  2.669538e+000  1.234806e+002
      vertex -1.122477e+002  1.986971e+000  1.238595e+002
    endloop
  endfacet
  facet normal -3.958696e-001  2.952362e-006 -9.183067e-001
    outer loop
      vertex -1.312644e+002  5.000000e+000  1.320573e+002
      vertex -1.122477e+002  1.986971e+000  1.238595e+002
      vertex -1.128623e+002  8.986028e-001  1.241244e+002
    endloop
  endfacet
  facet normal -3.958703e-001 -1.154260e-006 -9.183064e-001
    outer loop
      vertex -1.312644e+002  5.000000e+000  1.320573e+002
      vertex -1.128623e+002  8.986028e-001  1.241244e+002
      vertex -1.130000e+002  3.673819e-016  1.241838e+002
    endloop
  endfacet
  facet normal  9.183067e-001  0.000000e+000 -3.958696e-001
    outer loop
      vertex -1.032471e+002 -5.000000e+000  1.199794e+002
      vertex -1.032471e+002  5.000000e+000  1.199794e+002
      vertex -1.016581e+002 -5.000000e+000  1.236656e+002
    endloop
  endfacet
  facet normal  9.183067e-001  0.000000e+000 -3.958696e-001
    outer loop
      vertex -1.016581e+002 -5.000000e+000  1.236656e+002
      vertex -1.032471e+002  5.000000e+000  1.199794e+002
      vertex -1.016581e+002  5.000000e+000  1.236656e+002
    endloop
  endfacet
  facet normal  0.000000e+000 -9.999994e-001 -1.125610e-003
    outer loop
      vertex -1.090730e+002 -2.853169e+000  5.000000e+000
      vertex -1.102894e+002 -2.986009e+000  1.230153e+002
      vertex -1.109270e+002 -2.853169e+000  5.000000e+000
    endloop
  endfacet
  facet normal -3.626778e-001 -9.319142e-001  9.106159e-004
    outer loop
      vertex -1.109270e+002 -2.853169e+000  5.000000e+000
      vertex -1.102894e+002 -2.986009e+000  1.230153e+002
      vertex -1.118069e+002 -2.394781e+000  1.236695e+002
    endloop
  endfacet
  facet normal -5.877848e-001 -8.090165e-001 -1.233191e-003
    outer loop
      vertex -1.109270e+002 -2.853169e+000  5.000000e+000
      vertex -1.118069e+002 -2.394781e+000  1.236695e+002
      vertex -1.124270e+002 -1.763356e+000  5.000000e+000
    endloop
  endfacet
  facet normal  9.510560e-001 -3.090186e-001  0.000000e+000
    outer loop
      vertex -1.070000e+002  0.000000e+000  5.000000e+000
      vertex -1.070000e+002  0.000000e+000  1.215973e+002
      vertex -1.075730e+002 -1.763356e+000  5.000000e+000
    endloop
  endfacet
  facet normal  9.884265e-001 -1.516790e-001 -2.563159e-003
    outer loop
      vertex -1.075730e+002 -1.763356e+000  5.000000e+000
      vertex -1.070000e+002  0.000000e+000  1.215973e+002
      vertex -1.071377e+002 -8.986028e-001  1.216566e+002
    endloop
  endfacet
  facet normal  8.707946e-001 -4.916470e-001  3.958079e-004
    outer loop
      vertex -1.075730e+002 -1.763356e+000  5.000000e+000
      vertex -1.071377e+002 -8.986028e-001  1.216566e+002
      vertex -1.077523e+002 -1.986971e+000  1.219216e+002
    endloop
  endfacet
  facet normal  5.877851e-001 -8.090169e-001 -6.454035e-004
    outer loop
      vertex -1.075730e+002 -1.763356e+000  5.000000e+000
      vertex -1.077523e+002 -1.986971e+000  1.219216e+002
      vertex -1.090730e+002 -2.853169e+000  5.000000e+000
    endloop
  endfacet
  facet normal  6.130936e-001 -7.900096e-001 -1.072070e-003
    outer loop
      vertex -1.090730e+002 -2.853169e+000  5.000000e+000
      vertex -1.077523e+002 -1.986971e+000  1.219216e+002
      vertex -1.086312e+002 -2.669538e+000  1.223005e+002
    endloop
  endfacet
  facet normal  1.878154e-001 -9.822040e-001  8.303339e-004
    outer loop
      vertex -1.090730e+002 -2.853169e+000  5.000000e+000
      vertex -1.086312e+002 -2.669538e+000  1.223005e+002
      vertex -1.102894e+002 -2.986009e+000  1.230153e+002
    endloop
  endfacet
  facet normal -9.671730e-001 -2.541192e-001  0.000000e+000
    outer loop
      vertex -1.130000e+002  3.673819e-016  1.241838e+002
      vertex -1.130000e+002  3.673819e-016  5.000000e+000
      vertex -1.126125e+002 -1.474661e+000  1.240167e+002
    endloop
  endfacet
  facet normal -9.510558e-001 -3.090185e-001 -7.326925e-004
    outer loop
      vertex -1.126125e+002 -1.474661e+000  1.240167e+002
      vertex -1.130000e+002  3.673819e-016  5.000000e+000
      vertex -1.124270e+002 -1.763356e+000  5.000000e+000
    endloop
  endfacet
  facet normal -7.522950e-001 -6.588264e-001  4.256018e-004
    outer loop
      vertex -1.126125e+002 -1.474661e+000  1.240167e+002
      vertex -1.124270e+002 -1.763356e+000  5.000000e+000
      vertex -1.118069e+002 -2.394781e+000  1.236695e+002
    endloop
  endfacet
  facet normal  0.000000e+000  9.999993e-001 -1.127994e-003
    outer loop
      vertex -1.109270e+002  2.853169e+000  5.000000e+000
      vertex -1.097106e+002  2.986009e+000  1.227658e+002
      vertex -1.090730e+002  2.853169e+000  5.000000e+000
    endloop
  endfacet
  facet normal  3.633616e-001  9.316477e-001  9.165486e-004
    outer loop
      vertex -1.090730e+002  2.853169e+000  5.000000e+000
      vertex -1.097106e+002  2.986009e+000  1.227658e+002
      vertex -1.081931e+002  2.394781e+000  1.221116e+002
    endloop
  endfacet
  facet normal  5.877848e-001  8.090164e-001 -1.249596e-003
    outer loop
      vertex -1.090730e+002  2.853169e+000  5.000000e+000
      vertex -1.081931e+002  2.394781e+000  1.221116e+002
      vertex -1.075730e+002  1.763356e+000  5.000000e+000
    endloop
  endfacet
  facet normal -9.510561e-001  3.090186e-001  0.000000e+000
    outer loop
      vertex -1.130000e+002  3.673819e-016  5.000000e+000
      vertex -1.130000e+002  3.673819e-016  1.241838e+002
      vertex -1.124270e+002  1.763356e+000  5.000000e+000
    endloop
  endfacet
  facet normal -9.884768e-001  1.513513e-001 -2.512623e-003
    outer loop
      vertex -1.124270e+002  1.763356e+000  5.000000e+000
      vertex -1.130000e+002  3.673819e-016  1.241838e+002
      vertex -1.128623e+002  8.986028e-001  1.241244e+002
    endloop
  endfacet
  facet normal -8.707128e-001  4.917918e-001  3.889587e-004
    outer loop
      vertex -1.124270e+002  1.763356e+000  5.000000e+000
      vertex -1.128623e+002  8.986028e-001  1.241244e+002
      vertex -1.122477e+002  1.986971e+000  1.238595e+002
    endloop
  endfacet
  facet normal -5.877851e-001  8.090169e-001 -6.348810e-004
    outer loop
      vertex -1.124270e+002  1.763356e+000  5.000000e+000
      vertex -1.122477e+002  1.986971e+000  1.238595e+002
      vertex -1.109270e+002  2.853169e+000  5.000000e+000
    endloop
  endfacet
  facet normal -6.136680e-001  7.895635e-001 -1.064225e-003
    outer loop
      vertex -1.109270e+002  2.853169e+000  5.000000e+000
      vertex -1.122477e+002  1.986971e+000  1.238595e+002
      vertex -1.113688e+002  2.669538e+000  1.234806e+002
    endloop
  endfacet
  facet normal -1.871269e-001  9.823354e-001  8.248337e-004
    outer loop
      vertex -1.109270e+002  2.853169e+000  5.000000e+000
      vertex -1.113688e+002  2.669538e+000  1.234806e+002
      vertex -1.097106e+002  2.986009e+000  1.227658e+002
    endloop
  endfacet
  facet normal  9.671729e-001  2.541192e-001  -0.000000e+000
    outer loop
      vertex -1.070000e+002  0.000000e+000  1.215973e+002
      vertex -1.070000e+002  0.000000e+000  5.000000e+000
      vertex -1.073875e+002  1.474661e+000  1.217643e+002
    endloop
  endfacet
  facet normal  9.510558e-001  3.090185e-001 -7.468267e-004
    outer loop
      vertex -1.073875e+002  1.474661e+000  1.217643e+002
      vertex -1.070000e+002  0.000000e+000  5.000000e+000
      vertex -1.075730e+002  1.763356e+000  5.000000e+000
    endloop
  endfacet
  facet normal  7.524556e-001  6.586428e-001  4.331031e-004
    outer loop
      vertex -1.073875e+002  1.474661e+000  1.217643e+002
      vertex -1.075730e+002  1.763356e+000  5.000000e+000
      vertex -1.081931e+002  2.394781e+000  1.221116e+002
    endloop
  endfacet
endsolid CATIA STL
